#!OML:ASF H:\Punching\Project 1\Capture day 1\Session 1\female.ASF
:FULLY-SPECIFIED
:DEGREES
1136
root 0.820536 15.1779 1.87805 -5.59254 22.085 0.339509
lowerback -0.718367 0.0617467 -2.27671
upperback -3.21219 0.0892003 0.865743
thorax -2.90227 0.120727 2.1644
lowerneck -5.41429 1.16055 9.35806
upperneck 47.9846 1.43706 -2.06962
head 19.743 2.38041 -2.39506
rclavicle 5.04416e-015 -2.06736e-014
rhumerus -21.2794 14.1312 -67.0129
rradius 129.506
rwrist -10.8731
rhand -32.678 11.3639
rfingers 7.12502
rthumb -5.90338 -18.5339
lclavicle 5.04416e-015 -2.06736e-014
lhumerus -15.64 -27.9544 79.2373
lradius 136.978
lwrist -4.86029
lhand -31.2795 2.75176
lfingers 7.12502
lthumb -4.55299 32.6828
rfemur -66.9576 -12.2094 19.7387
rtibia 129.577
rfoot -1.27615 2.46713
rtoes -12.4634
lfemur -14.1444 -16.0113 -29.2683
ltibia 33.6006
lfoot -9.19147 -4.87976
ltoes 13.0637
1137
root 0.827873 15.1665 1.94458 -6.95179 22.7224 0.224949
lowerback -0.194376 -0.0957163 -2.74492
upperback -2.66254 -0.133235 1.09097
thorax -2.61796 0.0123238 2.66381
lowerneck -5.02012 0.997724 9.31135
upperneck 48.3067 1.25045 -2.06006
head 19.8421 2.32184 -2.41525
rclavicle 1.30701e-014 -7.35503e-015
rhumerus -21.3789 13.8748 -67.0863
rradius 129.561
rwrist -10.887
rhand -32.6804 11.3976
rfingers 7.12502
rthumb -5.90566 -18.5001
lclavicle 1.30701e-014 -7.35503e-015
lhumerus -15.2937 -28.7488 80.1106
lradius 136.788
lwrist -4.88818
lhand -31.4695 2.50521
lfingers 7.12502
lthumb -4.7365 32.4323
rfemur -69.7367 -11.9628 20.2191
rtibia 129.966
rfoot 0.118654 2.11413
rtoes -11.872
lfemur -12.226 -16.4118 -29.7167
ltibia 33.3677
lfoot -9.36625 -4.83184
ltoes 13.152
1138
root 0.835628 15.1552 2.01365 -8.34208 23.2982 0.0221127
lowerback 0.284319 -0.222859 -3.14927
upperback -2.1039 -0.315404 1.33396
thorax -2.2973 -0.0817564 3.14623
lowerneck -4.63995 0.830123 9.27274
upperneck 48.6036 1.05317 -2.05433
head 19.928 2.25898 -2.43963
rclavicle 4.11484e-014 -1.17283e-014
rhumerus -21.4773 13.6197 -67.1752
rradius 129.617
rwrist -10.9075
rhand -32.6893 11.4159
rfingers 7.12502
rthumb -5.91423 -18.4815
lclavicle 4.11484e-014 -1.17283e-014
lhumerus -14.9626 -29.5602 80.9494
lradius 136.624
lwrist -4.89715
lhand -31.6428 2.26838
lfingers 7.12502
lthumb -4.90379 32.1916
rfemur -72.4051 -11.5093 20.7659
rtibia 129.983
rfoot 1.72176 1.55593
rtoes -11.4064
lfemur -10.315 -16.7987 -30.0963
ltibia 33.1748
lfoot -9.58057 -4.73722
ltoes 13.1965
1139
root 0.844413 15.1466 2.0846 -9.75267 23.798 -0.282966
lowerback 0.707439 -0.318658 -3.45649
upperback -1.54732 -0.454298 1.59079
thorax -1.94785 -0.159931 3.58817
lowerneck -4.27984 0.657996 9.25541
upperneck 48.8802 0.842116 -2.05274
head 20.0058 2.19323 -2.47135
rclavicle 1.08338e-014 6.55989e-015
rhumerus -21.5888 13.3645 -67.292
rradius 129.673
rwrist -10.922
rhand -32.7107 11.466
rfingers 7.12502
rthumb -5.93494 -18.4309
lclavicle 1.08338e-014 6.55989e-015
lhumerus -14.6405 -30.3752 81.7379
lradius 136.459
lwrist -4.96506
lhand -31.8063 2.0628
lfingers 7.12502
lthumb -5.06167 31.9823
rfemur -74.9184 -10.8567 21.3563
rtibia 129.597
rfoot 3.53951 0.852336
rtoes -11.1774
lfemur -8.41731 -17.1568 -30.3859
ltibia 32.9949
lfoot -9.82035 -4.60361
ltoes 13.2272
1140
root 0.854368 15.1416 2.15683 -11.1619 24.2143 -0.671288
lowerback 1.06523 -0.391046 -3.6825
upperback -1.00543 -0.559777 1.86001
thorax -1.57774 -0.225675 3.99688
lowerneck -3.91047 0.483727 9.27075
upperneck 49.1288 0.627372 -2.06636
head 20.0619 2.12896 -2.51627
rclavicle -3.21534e-014 8.34896e-015
rhumerus -21.7189 13.1334 -67.4426
rradius 129.729
rwrist -10.9244
rhand -32.7497 11.5307
rfingers 7.12502
rthumb -5.97257 -18.3651
lclavicle -3.21534e-014 8.34896e-015
lhumerus -14.3438 -31.1584 82.4765
lradius 136.29
lwrist -5.12146
lhand -31.9265 1.93255
lfingers 7.12502
lthumb -5.17781 31.8493
rfemur -77.2533 -10.0493 21.9381
rtibia 128.795
rfoot 5.54323 0.0862169
rtoes -11.2075
lfemur -6.53958 -17.4662 -30.5935
ltibia 32.7994
lfoot -10.0682 -4.44561
ltoes 13.2546
1141
root 0.86547 15.1405 2.22975 -12.5443 24.5512 -1.11514
lowerback 1.35621 -0.441266 -3.83844
upperback -0.490143 -0.633498 2.12773
thorax -1.19942 -0.278442 4.36409
lowerneck -3.53365 0.305271 9.31423
upperneck 49.3561 0.399472 -2.07825
head 20.1003 2.06392 -2.5664
rclavicle 1.00883e-014 4.37326e-015
rhumerus -21.884 12.9195 -67.6364
rradius 129.789
rwrist -10.9049
rhand -32.8063 11.6338
rfingers 7.12502
rthumb -6.02722 -18.2604
lclavicle 1.00883e-014 4.37326e-015
lhumerus -14.0701 -31.9143 83.1597
lradius 136.094
lwrist -5.38701
lhand -32.0403 1.86529
lfingers 7.12502
lthumb -5.28767 31.7793
rfemur -79.3872 -9.1531 22.4585
rtibia 127.578
rfoot 7.67709 -0.642377
rtoes -11.4973
lfemur -4.69083 -17.7129 -30.7339
ltibia 32.5621
lfoot -10.3058 -4.28488
ltoes 13.2983
1142
root 0.877546 15.1434 2.30278 -13.8738 24.817 -1.58258
lowerback 1.57856 -0.472738 -3.95009
upperback -0.00760282 -0.680362 2.38568
thorax -0.818423 -0.319477 4.69575
lowerneck -3.1607 0.123236 9.38083
upperneck 49.5716 0.155872 -2.08059
head 20.1311 1.9975 -2.61731
rclavicle -2.15681e-014 2.42517e-014
rhumerus -22.0833 12.7222 -67.8768
rradius 129.85
rwrist -10.8527
rhand -32.8668 11.7445
rfingers 7.12502
rthumb -6.08563 -18.1481
lclavicle -2.15681e-014 2.42517e-014
lhumerus -13.8116 -32.6417 83.7876
lradius 135.88
lwrist -5.70447
lhand -32.1374 1.86989
lfingers 7.12502
lthumb -5.38138 31.7816
rfemur -81.3047 -8.22592 22.8744
rtibia 125.951
rfoot 9.8637 -1.2549
rtoes -11.993
lfemur -2.88424 -17.8855 -30.8238
ltibia 32.2654
lfoot -10.5167 -4.14349
ltoes 13.3776
1143
root 0.890316 15.1495 2.37517 -15.1142 25.0297 -2.03179
lowerback 1.73051 -0.488319 -4.05071
upperback 0.432119 -0.704777 2.62044
thorax -0.443999 -0.349913 4.99685
lowerneck -2.79835 -0.0640379 9.47138
upperneck 49.7833 -0.109301 -2.06799
head 20.1617 1.92858 -2.66738
rclavicle -5.53615e-014 -1.31198e-014
rhumerus -22.3195 12.5297 -68.1664
rradius 129.908
rwrist -10.771
rhand -32.9163 11.895
rfingers 7.12502
rthumb -6.13344 -17.9962
lclavicle -5.53615e-014 -1.31198e-014
lhumerus -13.5722 -33.355 84.3661
lradius 135.641
lwrist -6.03675
lhand -32.2591 1.88847
lfingers 7.12502
lthumb -5.49891 31.7971
rfemur -83.0168 -7.32546 23.1433
rtibia 123.935
rfoot 12.0107 -1.67342
rtoes -12.6348
lfemur -1.14723 -17.9866 -30.891
ltibia 31.9067
lfoot -10.6935 -4.0365
ltoes 13.4838
1144
root 0.903359 15.1589 2.44607 -16.2465 25.1993 -2.45684
lowerback 1.81064 -0.493287 -4.14963
upperback 0.820888 -0.713707 2.83367
thorax -0.0831836 -0.372551 5.27458
lowerneck -2.45175 -0.256162 9.56947
upperneck 50.0025 -0.397151 -2.03026
head 20.202 1.8555 -2.7087
rclavicle -6.06293e-015 -2.50469e-014
rhumerus -22.5888 12.3483 -68.5093
rradius 129.953
rwrist -10.6543
rhand -32.9589 12.0784
rfingers 7.12502
rthumb -6.17449 -17.8116
lclavicle -6.06293e-015 -2.50469e-014
lhumerus -13.3676 -34.0695 84.9076
lradius 135.367
lwrist -6.38217
lhand -32.4885 1.88049
lfingers 7.12502
lthumb -5.72036 31.7833
rfemur -84.5191 -6.47373 23.2643
rtibia 121.532
rfoot 14.0117 -1.87873
rtoes -13.2856
lfemur 0.490338 -18.0222 -30.927
ltibia 31.4929
lfoot -10.8337 -3.97528
ltoes 13.6177
1145
root 0.916526 15.1695 2.51479 -17.251 25.3514 -2.83969
lowerback 1.83571 -0.49075 -4.25261
upperback 1.14121 -0.711744 3.0119
thorax 0.236742 -0.38827 5.51845
lowerneck -2.11197 -0.457798 9.67546
upperneck 50.2434 -0.719091 -1.95508
head 20.2601 1.77632 -2.73669
rclavicle -2.96189e-014 1.03368e-014
rhumerus -22.92 12.1654 -68.919
rradius 129.994
rwrist -10.517
rhand -32.9742 12.3177
rfingers 7.12502
rthumb -6.18929 -17.5718
lclavicle -2.96189e-014 1.03368e-014
lhumerus -13.2174 -34.7879 85.4189
lradius 135.093
lwrist -6.63031
lhand -32.7228 1.81609
lfingers 7.12502
lthumb -5.9466 31.7126
rfemur -85.8159 -5.70699 23.2316
rtibia 118.768
rfoot 15.7358 -1.84826
rtoes -13.9682
lfemur 2.00097 -18.0151 -30.9486
ltibia 31.0411
lfoot -10.9391 -3.96267
ltoes 13.7704
1146
root 0.929567 15.1807 2.58038 -18.1239 25.4948 -3.19226
lowerback 1.81511 -0.483875 -4.34867
upperback 1.38529 -0.702876 3.16067
thorax 0.502625 -0.398084 5.72801
lowerneck -1.775 -0.669641 9.78729
upperneck 50.5122 -1.07211 -1.84901
head 20.3408 1.69174 -2.75368
rclavicle 1.49089e-014 1.51076e-014
rhumerus -23.3176 11.9812 -69.3935
rradius 130.032
rwrist -10.3737
rhand -32.9644 12.6417
rfingers 7.12502
rthumb -6.1798 -17.2482
lclavicle 1.49089e-014 1.51076e-014
lhumerus -13.133 -35.4984 85.9094
lradius 134.841
lwrist -6.7333
lhand -32.9087 1.67466
lfingers 7.12502
lthumb -6.12609 31.5661
rfemur -86.9063 -5.02969 23.0755
rtibia 115.645
rfoot 17.1154 -1.62825
rtoes -14.5668
lfemur 3.35894 -17.9856 -30.9425
ltibia 30.5752
lfoot -11.0175 -3.99334
ltoes 13.9226
